<svg width="64" height="64" viewBox="0 0 64 64" fill="none" xmlns="http://www.w3.org/2000/svg">
<path d="M21.6242 49.8425C24.8911 49.8425 27.5394 47.1942 27.5394 43.9274C27.5394 40.6605 24.8911 38.0122 21.6242 38.0122C18.3574 38.0122 15.7091 40.6605 15.7091 43.9274C15.7091 47.1942 18.3574 49.8425 21.6242 49.8425Z" fill="#DA7000"/>
<path d="M52.0727 49.4546C55.3396 49.4546 57.9879 46.8063 57.9879 43.5394C57.9879 40.2726 55.3396 37.6243 52.0727 37.6243C48.8059 37.6243 46.1576 40.2726 46.1576 43.5394C46.1576 46.8063 48.8059 49.4546 52.0727 49.4546Z" fill="#DA7000"/>
<path d="M62.9333 31.3211L58.0849 21.0423C57.8909 20.7514 57.6 20.4605 57.2121 20.4605H46.2545C45.7697 20.4605 45.2849 20.9454 45.2849 21.4302V35.1029H43.1515V16.0969H46.3515C46.9333 16.0969 47.3212 15.612 47.3212 15.1272C47.3212 14.6423 46.9333 14.1575 46.3515 14.1575H7.17576C6.78788 14.1575 6.4 14.4484 6.20606 14.8363L0.969698 34.4241C0.872728 34.812 0.969698 35.1029 1.26061 35.3938L10.4727 43.9272C10.6667 44.1211 10.8606 44.2181 11.1515 44.2181H13.7697C13.2849 40.6302 16.6788 36.1696 21.6242 36.1696C26.5697 36.1696 29.9636 40.7272 29.4788 44.2181H44.2182C44.2182 43.5393 44.2182 42.9575 44.3152 42.2787H43.1515V37.1393H45.1879V39.7575C46.5455 37.3332 49.0667 35.6847 52.0727 35.6847C56.3394 35.6847 60.1212 39.1757 59.9273 44.1211H62.0606C62.6424 44.1211 63.0303 43.6363 63.0303 43.1514V31.709C63.0303 31.612 63.0303 31.4181 62.9333 31.3211ZM17.7455 20.8484L12.703 31.515C12.5091 31.9999 11.9273 32.1938 11.4424 31.9999C10.9576 31.806 10.7636 31.2241 10.9576 30.7393L16 20.0726C16.1939 19.5878 16.7758 19.3938 17.2606 19.5878C17.7455 19.7817 17.9394 20.3635 17.7455 20.8484ZM27.0545 20.8484L22.0121 31.515C21.8182 31.9999 21.2364 32.1938 20.7515 31.9999C20.2667 31.806 20.0727 31.2241 20.2667 30.7393L25.3091 20.0726C25.503 19.5878 26.0849 19.3938 26.5697 19.5878C27.0545 19.7817 27.3455 20.3635 27.0545 20.8484ZM36.3636 20.8484L31.3212 31.515C31.1273 31.9029 30.6424 32.1938 30.0606 31.9999C29.5758 31.806 29.3818 31.2241 29.5758 30.7393L34.6182 20.0726C34.8121 19.5878 35.3939 19.3938 35.8788 19.5878C36.3636 19.7817 36.6545 20.3635 36.3636 20.8484ZM49.7455 31.9029V22.3999H56.5333L61.0909 31.9029H49.7455Z" fill="#DA7000"/>
</svg>
