<svg width="49" height="48" viewBox="0 0 49 48" fill="none" xmlns="http://www.w3.org/2000/svg">
<mask id="mask0_10201_535" style="mask-type:alpha" maskUnits="userSpaceOnUse" x="0" y="0" width="49" height="48">
<rect x="0.5" width="48" height="48" fill="#D9D9D9"/>
</mask>
<g mask="url(#mask0_10201_535)">
<path d="M24.5 20H34.5V16H24.5V20ZM24.5 32H34.5V28H24.5V32ZM18.5 22C19.6 22 20.5417 21.6083 21.325 20.825C22.1083 20.0417 22.5 19.1 22.5 18C22.5 16.9 22.1083 15.9583 21.325 15.175C20.5417 14.3917 19.6 14 18.5 14C17.4 14 16.4583 14.3917 15.675 15.175C14.8917 15.9583 14.5 16.9 14.5 18C14.5 19.1 14.8917 20.0417 15.675 20.825C16.4583 21.6083 17.4 22 18.5 22ZM18.5 34C19.6 34 20.5417 33.6083 21.325 32.825C22.1083 32.0417 22.5 31.1 22.5 30C22.5 28.9 22.1083 27.9583 21.325 27.175C20.5417 26.3917 19.6 26 18.5 26C17.4 26 16.4583 26.3917 15.675 27.175C14.8917 27.9583 14.5 28.9 14.5 30C14.5 31.1 14.8917 32.0417 15.675 32.825C16.4583 33.6083 17.4 34 18.5 34ZM10.5 42C9.4 42 8.45833 41.6083 7.675 40.825C6.89167 40.0417 6.5 39.1 6.5 38V10C6.5 8.9 6.89167 7.95833 7.675 7.175C8.45833 6.39167 9.4 6 10.5 6H38.5C39.6 6 40.5417 6.39167 41.325 7.175C42.1083 7.95833 42.5 8.9 42.5 10V38C42.5 39.1 42.1083 40.0417 41.325 40.825C40.5417 41.6083 39.6 42 38.5 42H10.5ZM10.5 38H38.5V10H10.5V38Z" fill="#FFEA00"/>
</g>
</svg>
