<svg width="61" height="25" viewBox="0 0 61 25" fill="none" xmlns="http://www.w3.org/2000/svg">
<path d="M1.624 19C1.272 19 0.976 18.88 0.736 18.64C0.512 18.4 0.4 18.104 0.4 17.752V1.504C0.4 1.152 0.52 0.855999 0.76 0.615999C1 0.375999 1.288 0.256 1.624 0.256C1.976 0.256 2.272 0.375999 2.512 0.615999C2.752 0.855999 2.872 1.152 2.872 1.504V16.504H11.56C11.912 16.504 12.208 16.624 12.448 16.864C12.688 17.104 12.808 17.4 12.808 17.752C12.808 18.104 12.688 18.4 12.448 18.64C12.208 18.88 11.912 19 11.56 19H1.624ZM21.5104 19.096C20.2144 19.096 19.0704 18.816 18.0784 18.256C17.0864 17.68 16.3024 16.896 15.7264 15.904C15.1664 14.896 14.8864 13.744 14.8864 12.448C14.8864 11.136 15.1664 9.984 15.7264 8.992C16.3024 7.984 17.0864 7.2 18.0784 6.64C19.0704 6.064 20.2144 5.776 21.5104 5.776C22.7904 5.776 23.9264 6.064 24.9184 6.64C25.9104 7.2 26.6864 7.984 27.2464 8.992C27.8224 9.984 28.1104 11.136 28.1104 12.448C28.1104 13.744 27.8304 14.896 27.2704 15.904C26.7104 16.896 25.9344 17.68 24.9424 18.256C23.9504 18.816 22.8064 19.096 21.5104 19.096ZM21.5104 16.936C22.3424 16.936 23.0784 16.744 23.7184 16.36C24.3584 15.976 24.8544 15.448 25.2064 14.776C25.5744 14.104 25.7584 13.328 25.7584 12.448C25.7584 11.568 25.5744 10.792 25.2064 10.12C24.8544 9.432 24.3584 8.896 23.7184 8.512C23.0784 8.128 22.3424 7.936 21.5104 7.936C20.6784 7.936 19.9424 8.128 19.3024 8.512C18.6624 8.896 18.1584 9.432 17.7904 10.12C17.4224 10.792 17.2384 11.568 17.2384 12.448C17.2384 13.328 17.4224 14.104 17.7904 14.776C18.1584 15.448 18.6624 15.976 19.3024 16.36C19.9424 16.744 20.6784 16.936 21.5104 16.936ZM37.2258 19.096C36.0258 19.096 34.9618 18.816 34.0338 18.256C33.1218 17.68 32.4018 16.896 31.8738 15.904C31.3458 14.896 31.0818 13.744 31.0818 12.448C31.0818 11.136 31.3618 9.984 31.9218 8.992C32.4978 7.984 33.2818 7.2 34.2738 6.64C35.2658 6.064 36.4098 5.776 37.7058 5.776C38.9858 5.776 40.1218 6.064 41.1138 6.64C42.1058 7.2 42.8818 7.984 43.4418 8.992C44.0178 9.984 44.3058 11.136 44.3058 12.448H42.8898C42.8898 13.744 42.6418 14.896 42.1458 15.904C41.6658 16.896 41.0018 17.68 40.1538 18.256C39.3058 18.816 38.3298 19.096 37.2258 19.096ZM37.6578 24.448C36.5218 24.448 35.4578 24.224 34.4658 23.776C33.4738 23.328 32.6338 22.672 31.9458 21.808C31.7378 21.536 31.6578 21.256 31.7058 20.968C31.7698 20.68 31.9298 20.448 32.1858 20.272C32.4738 20.08 32.7698 20.016 33.0738 20.08C33.3938 20.144 33.6498 20.304 33.8418 20.56C34.2738 21.104 34.8178 21.528 35.4738 21.832C36.1298 22.136 36.8738 22.288 37.7058 22.288C38.4738 22.288 39.1778 22.104 39.8178 21.736C40.4738 21.368 40.9938 20.824 41.3778 20.104C41.7618 19.384 41.9538 18.504 41.9538 17.464V14.056L42.7458 11.944L44.3058 12.448V17.632C44.3058 18.896 44.0258 20.04 43.4658 21.064C42.9058 22.104 42.1218 22.928 41.1138 23.536C40.1218 24.144 38.9698 24.448 37.6578 24.448ZM37.7058 16.936C38.5378 16.936 39.2738 16.744 39.9138 16.36C40.5538 15.976 41.0498 15.448 41.4018 14.776C41.7698 14.104 41.9538 13.328 41.9538 12.448C41.9538 11.568 41.7698 10.792 41.4018 10.12C41.0498 9.432 40.5538 8.896 39.9138 8.512C39.2738 8.128 38.5378 7.936 37.7058 7.936C36.8738 7.936 36.1378 8.128 35.4978 8.512C34.8578 8.896 34.3538 9.432 33.9858 10.12C33.6178 10.792 33.4338 11.568 33.4338 12.448C33.4338 13.328 33.6178 14.104 33.9858 14.776C34.3538 15.448 34.8578 15.976 35.4978 16.36C36.1378 16.744 36.8738 16.936 37.7058 16.936ZM53.9011 19.096C52.6051 19.096 51.4611 18.816 50.4691 18.256C49.4771 17.68 48.6931 16.896 48.1171 15.904C47.5571 14.896 47.2771 13.744 47.2771 12.448C47.2771 11.136 47.5571 9.984 48.1171 8.992C48.6931 7.984 49.4771 7.2 50.4691 6.64C51.4611 6.064 52.6051 5.776 53.9011 5.776C55.1811 5.776 56.3171 6.064 57.3091 6.64C58.3011 7.2 59.0771 7.984 59.6371 8.992C60.2131 9.984 60.5011 11.136 60.5011 12.448C60.5011 13.744 60.2211 14.896 59.6611 15.904C59.1011 16.896 58.3251 17.68 57.3331 18.256C56.3411 18.816 55.1971 19.096 53.9011 19.096ZM53.9011 16.936C54.7331 16.936 55.4691 16.744 56.1091 16.36C56.7491 15.976 57.2451 15.448 57.5971 14.776C57.9651 14.104 58.1491 13.328 58.1491 12.448C58.1491 11.568 57.9651 10.792 57.5971 10.12C57.2451 9.432 56.7491 8.896 56.1091 8.512C55.4691 8.128 54.7331 7.936 53.9011 7.936C53.0691 7.936 52.3331 8.128 51.6931 8.512C51.0531 8.896 50.5491 9.432 50.1811 10.12C49.8131 10.792 49.6291 11.568 49.6291 12.448C49.6291 13.328 49.8131 14.104 50.1811 14.776C50.5491 15.448 51.0531 15.976 51.6931 16.36C52.3331 16.744 53.0691 16.936 53.9011 16.936Z" fill="#0E0E0E"/>
</svg>
