<svg width="40" height="40" viewBox="0 0 40 40" fill="none" xmlns="http://www.w3.org/2000/svg">
<path d="M18.2 34H21.7V31.5C23.3667 31.2 24.8 30.55 26 29.55C27.2 28.55 27.8 27.0667 27.8 25.1C27.8 23.7 27.4 22.4167 26.6 21.25C25.8 20.0833 24.2 19.0667 21.8 18.2C19.8 17.5333 18.4167 16.95 17.65 16.45C16.8833 15.95 16.5 15.2667 16.5 14.4C16.5 13.5333 16.8083 12.85 17.425 12.35C18.0417 11.85 18.9333 11.6 20.1 11.6C21.1667 11.6 22 11.8583 22.6 12.375C23.2 12.8917 23.6333 13.5333 23.9 14.3L27.1 13C26.7333 11.8333 26.0583 10.8167 25.075 9.95C24.0917 9.08333 23 8.6 21.8 8.5V6H18.3V8.5C16.6333 8.86667 15.3333 9.6 14.4 10.7C13.4667 11.8 13 13.0333 13 14.4C13 15.9667 13.4583 17.2333 14.375 18.2C15.2917 19.1667 16.7333 20 18.7 20.7C20.8 21.4667 22.2583 22.15 23.075 22.75C23.8917 23.35 24.3 24.1333 24.3 25.1C24.3 26.2 23.9083 27.0083 23.125 27.525C22.3417 28.0417 21.4 28.3 20.3 28.3C19.2 28.3 18.225 27.9583 17.375 27.275C16.525 26.5917 15.9 25.5667 15.5 24.2L12.2 25.5C12.6667 27.1 13.3917 28.3917 14.375 29.375C15.3583 30.3583 16.6333 31.0333 18.2 31.4V34ZM20 40C17.2333 40 14.6333 39.475 12.2 38.425C9.76667 37.375 7.65 35.95 5.85 34.15C4.05 32.35 2.625 30.2333 1.575 27.8C0.525 25.3667 0 22.7667 0 20C0 17.2333 0.525 14.6333 1.575 12.2C2.625 9.76667 4.05 7.65 5.85 5.85C7.65 4.05 9.76667 2.625 12.2 1.575C14.6333 0.525 17.2333 0 20 0C22.7667 0 25.3667 0.525 27.8 1.575C30.2333 2.625 32.35 4.05 34.15 5.85C35.95 7.65 37.375 9.76667 38.425 12.2C39.475 14.6333 40 17.2333 40 20C40 22.7667 39.475 25.3667 38.425 27.8C37.375 30.2333 35.95 32.35 34.15 34.15C32.35 35.95 30.2333 37.375 27.8 38.425C25.3667 39.475 22.7667 40 20 40ZM20 36C24.4667 36 28.25 34.45 31.35 31.35C34.45 28.25 36 24.4667 36 20C36 15.5333 34.45 11.75 31.35 8.65C28.25 5.55 24.4667 4 20 4C15.5333 4 11.75 5.55 8.65 8.65C5.55 11.75 4 15.5333 4 20C4 24.4667 5.55 28.25 8.65 31.35C11.75 34.45 15.5333 36 20 36Z" fill="#FFEA00"/>
</svg>
