<svg width="37" height="36" viewBox="0 0 37 36" fill="none" xmlns="http://www.w3.org/2000/svg">
<path d="M33.7 36L21.1 23.4C20.1 24.2 18.95 24.8333 17.65 25.3C16.35 25.7667 14.9667 26 13.5 26C9.86667 26 6.79167 24.7417 4.275 22.225C1.75833 19.7083 0.5 16.6333 0.5 13C0.5 9.36667 1.75833 6.29167 4.275 3.775C6.79167 1.25833 9.86667 0 13.5 0C17.1333 0 20.2083 1.25833 22.725 3.775C25.2417 6.29167 26.5 9.36667 26.5 13C26.5 14.4667 26.2667 15.85 25.8 17.15C25.3333 18.45 24.7 19.6 23.9 20.6L36.5 33.2L33.7 36ZM13.5 22C16 22 18.125 21.125 19.875 19.375C21.625 17.625 22.5 15.5 22.5 13C22.5 10.5 21.625 8.375 19.875 6.625C18.125 4.875 16 4 13.5 4C11 4 8.875 4.875 7.125 6.625C5.375 8.375 4.5 10.5 4.5 13C4.5 15.5 5.375 17.625 7.125 19.375C8.875 21.125 11 22 13.5 22Z" fill="#FFEA00"/>
</svg>
