<svg width="28" height="29" viewBox="0 0 28 29" fill="none" xmlns="http://www.w3.org/2000/svg">
<path fill-rule="evenodd" clip-rule="evenodd" d="M14 28.5C21.732 28.5 28 22.232 28 14.5C28 6.76801 21.732 0.5 14 0.5C6.26801 0.5 0 6.76801 0 14.5C0 22.232 6.26801 28.5 14 28.5ZM11.4334 20.9156C11.7739 20.9156 11.9295 20.7641 12.1176 20.581L12.1334 20.5656L13.8143 18.9312L17.3136 21.5165C17.9574 21.8718 18.4221 21.6878 18.5824 20.9188L20.879 10.0964C21.1142 9.15375 20.5197 8.72619 19.9038 9.00581L6.41826 14.2058C5.49774 14.575 5.50311 15.0885 6.25047 15.3174L9.71115 16.3975L17.723 11.3429C18.1012 11.1136 18.4484 11.2369 18.1634 11.4897L11.6729 17.347L11.6716 17.3462L11.4334 20.9156Z" fill="url(#paint0_linear_6229_1316)"/>
<defs>
<linearGradient id="paint0_linear_6229_1316" x1="14" y1="0.5" x2="14" y2="28.5" gradientUnits="userSpaceOnUse">
<stop stop-color="#36ACE9"/>
<stop offset="1" stop-color="#299DD5"/>
</linearGradient>
</defs>
</svg>
