<svg width="28" height="29" viewBox="0 0 28 29" fill="none" xmlns="http://www.w3.org/2000/svg">
<path fill-rule="evenodd" clip-rule="evenodd" d="M14 28.5C21.732 28.5 28 22.232 28 14.5C28 6.76801 21.732 0.5 14 0.5C6.26801 0.5 0 6.76801 0 14.5C0 22.232 6.26801 28.5 14 28.5Z" fill="#25D366"/>
<path fill-rule="evenodd" clip-rule="evenodd" d="M14.4614 22.289H14.458C13.0647 22.2885 11.6957 21.9389 10.4798 21.2757L6.06665 22.4333L7.24768 18.1195C6.51916 16.857 6.13582 15.4249 6.13645 13.9576C6.13827 9.36765 9.87279 5.63333 14.4614 5.63333C16.6884 5.63429 18.7785 6.50125 20.3503 8.07482C21.922 9.64831 22.7871 11.7399 22.7862 13.9642C22.7844 18.5532 19.0514 22.2871 14.4614 22.289ZM10.6842 19.7686L10.9369 19.9186C11.9992 20.549 13.217 20.8825 14.4586 20.883H14.4614C18.2751 20.883 21.3791 17.779 21.3806 13.9637C21.3813 12.1149 20.6623 10.3765 19.3559 9.06857C18.0496 7.76068 16.3123 7.04006 14.4642 7.03942C10.6475 7.03942 7.54351 10.1431 7.542 13.9581C7.54146 15.2655 7.90727 16.5388 8.59991 17.6405L8.76442 17.9022L8.06542 20.4556L10.6842 19.7686ZM18.6554 15.9438C18.6035 15.8571 18.4648 15.805 18.2568 15.7008C18.0488 15.5967 17.0261 15.0936 16.8354 15.0241C16.6448 14.9547 16.5061 14.92 16.3674 15.1282C16.2288 15.3364 15.8301 15.805 15.7088 15.9438C15.5874 16.0826 15.4661 16.1 15.2582 15.9959C15.0501 15.8918 14.3799 15.6721 13.5854 14.9634C12.967 14.4119 12.5495 13.7307 12.4282 13.5225C12.3069 13.3142 12.4153 13.2017 12.5194 13.098C12.613 13.0047 12.7274 12.855 12.8314 12.7335C12.9354 12.6121 12.9701 12.5253 13.0394 12.3866C13.1088 12.2477 13.0741 12.1262 13.0221 12.0221C12.9701 11.918 12.5541 10.8941 12.3808 10.4776C12.2119 10.072 12.0404 10.127 11.9127 10.1206C11.7916 10.1145 11.6527 10.1132 11.5141 10.1132C11.3754 10.1132 11.15 10.1653 10.9594 10.3735C10.7687 10.5817 10.2314 11.085 10.2314 12.1088C10.2314 13.1327 10.9767 14.1218 11.0807 14.2606C11.1847 14.3995 12.5475 16.5004 14.6341 17.4014C15.1304 17.6158 15.5178 17.7437 15.82 17.8396C16.3182 17.998 16.7717 17.9756 17.1301 17.922C17.5298 17.8623 18.3608 17.4189 18.5342 16.933C18.7074 16.447 18.7074 16.0306 18.6554 15.9438Z" fill="#FDFDFD"/>
</svg>
